# xmcd
#
# Track frame offsets:
#	150
#	11911
#	27741
#	62633
#	93504
#	107885
#	122954
#	148520
#	165615
#	233226
#	249165
#	260076
#	272845
#	298222
#
# Disc length: 4581 seconds
#
# Revision: 0
# Processed by: cddbd v1.5.2PL0 Copyright (c) Steve Scherf et al.
# Submitted via: EasyCDDAExtractor 15.2.5.1
#
DISCID=d711e30e
DTITLE=Shin Joong Hyun 1958 - 1974 - Beautiful Rivers and Mountains
DYEAR=1900
DGENRE=
TTITLE0=Shin Joong Hyun - Moon Watching
TTITLE1=golden grapes - Please Don't Both Me Anymore
TTITLE2=kim sun - The Man Who Must Leave
TTITLE3=kim jung mi - The Sun
TTITLE4=lee jung hwa - I Don't Like
TTITLE5=jang hyun - Please Wait 
TTITLE6=park in soo - Spring Rain 
TTITLE7=lee jung hwa - Tomorrow 
TTITLE8=Shin Joong Hyun - 'J' Blues 72  
TTITLE9=Jang Hyun - Pushing Through the Fog 
TTITLE10=Shin Joong Hyun - I've Got Nothing To Say 
TTITLE11=bunny girls - Why That Person?
TTITLE12=Jang Hyun - Sunset
TTITLE13=shin joong hyun and the men - Beautiful River and Mountains 
EXTD=
EXTT0=
EXTT1=
EXTT2=
EXTT3=
EXTT4=
EXTT5=
EXTT6=
EXTT7=
EXTT8=
EXTT9=
EXTT10=
EXTT11=
EXTT12=
EXTT13=
PLAYORDER=
